<?xml version="1.0" encoding="utf-8"?><svg xmlns="http://www.w3.org/2000/svg" xmlns:xlink="http://www.w3.org/1999/xlink"><symbol viewBox="0 0 48 44" id="basket" xmlns="http://www.w3.org/2000/svg"><defs><path id="aa" d="M1319.261 120.854a1.002 1.002 0 0 1-.092-1.413l6.642-7.545a3.325 3.325 0 0 1-.377-1.514c0-1.865 1.528-3.382 3.406-3.382 1.878 0 3.407 1.517 3.407 3.382 0 .547-.144 1.056-.378 1.514l6.644 7.545a1 1 0 0 1-.755 1.661c-.278 0-.557-.115-.754-.34l-6.54-7.426a3.382 3.382 0 0 1-1.624.427c-.59 0-1.14-.163-1.624-.427l-6.537 7.426a1.005 1.005 0 0 1-1.417.092zm8.18-10.472c0 .762.627 1.38 1.4 1.38a1.39 1.39 0 0 0 1.399-1.38 1.39 1.39 0 0 0-1.4-1.38c-.772 0-1.4.618-1.4 1.38zm14.492 27.606a1 1 0 0 1-1.003 1h-23.23a1.001 1.001 0 1 1 0-2h23.23c.554 0 1.003.447 1.003 1zm1.449-5.97c0 .554-.45 1.002-1.004 1.002h-26.127a1.002 1.002 0 1 1 0-2.002h26.127c.555 0 1.004.448 1.004 1zm-2.897 11.939c0 .554-.45 1-1.004 1h-20.333a1.001 1.001 0 1 1 0-2h20.333c.555 0 1.004.447 1.004 1zm12.487-15.48v1.267a4.734 4.734 0 0 1-2.79 4.318c-.58 2.01-1.065 3.788-1.496 5.356-2.372 8.661-3.172 11.58-8.207 11.58h-23.003c-5.004 0-5.818-2.952-8.234-11.711-.424-1.534-.902-3.268-1.465-5.225a4.735 4.735 0 0 1-2.79-4.318v-1.267c0-2.64 2.163-4.788 4.825-4.788h38.336c2.66 0 4.824 2.149 4.824 4.788zm-2.007 0c0-1.537-1.264-2.787-2.817-2.787h-38.336c-1.554 0-2.819 1.25-2.819 2.787v1.267a2.74 2.74 0 0 0 1.92 2.612c.317.103.564.356.656.676.625 2.161 1.149 4.06 1.607 5.723 2.423 8.784 2.923 10.24 6.3 10.24h23.003c3.404 0 3.896-1.438 6.272-10.105.465-1.698.998-3.641 1.638-5.858.093-.32.34-.573.657-.676a2.741 2.741 0 0 0 1.919-2.612z"/></defs><use xlink:href="#aa" transform="translate(-1305 -107)"/></symbol><symbol viewBox="0 0 344.96 344.96" id="check" xmlns="http://www.w3.org/2000/svg"><g data-name="Слой 2"><path d="M321.85 86.24l-40-23.11-23.1-40H212.5L172.48 0l-40 23.11H86.24l-23.11 40-40 23.1v46.21L0 172.48l23.11 40v46.21l40 23.11 23.11 40h46.21l40 23.1 40-23.11h46.21l23.11-40 40-23.11V212.5l23.11-40-23.11-40V86.24zM156.91 243.07a16.79 16.79 0 0 1-23.34 0l-50.45-50.44a16.19 16.19 0 0 1 0-22.89l13.35-13.35a16.19 16.19 0 0 1 22.89 0l25.87 25.87 80.34-80.35a16.19 16.19 0 0 1 22.89 0l13.35 13.35a16.19 16.19 0 0 1 0 22.89z" data-name="Capa 1"/></g></symbol><symbol viewBox="0 0 31 31" id="clock" xmlns="http://www.w3.org/2000/svg"><defs><path id="ca" d="M629.998 131.5c0 8.55-6.951 15.505-15.495 15.505s-15.495-6.956-15.495-15.505c0-8.55 6.951-15.506 15.495-15.506s15.495 6.957 15.495 15.506zm-1.318 0c0-7.822-6.36-14.186-14.177-14.186-7.817 0-14.177 6.364-14.177 14.186s6.36 14.186 14.177 14.186c7.817 0 14.177-6.364 14.177-14.186zm-14.206.99l-7.55-7.505a.66.66 0 0 1 .93-.936l7.194 7.15 4.153-2.374a.66.66 0 0 1 .654 1.145l-4.59 2.624a.656.656 0 0 1-.791-.105zm12.589-1.193c0 .954-.776 1.73-1.73 1.73s-1.73-.776-1.73-1.73c0-.955.776-1.731 1.73-1.731s1.73.776 1.73 1.73zm-1.319 0a.412.412 0 1 0-.823 0 .412.412 0 0 0 .823 0zm-22.071 1.73c-.954 0-1.73-.776-1.73-1.73 0-.955.776-1.731 1.73-1.731a1.732 1.732 0 0 1 0 3.461zm.41-1.73a.412.412 0 1 0-.823 0 .412.412 0 0 0 .824 0zm8.68-10.788c0-.954.775-1.73 1.729-1.73.954 0 1.73.776 1.73 1.73 0 .955-.776 1.731-1.73 1.731s-1.73-.776-1.73-1.73zm1.318 0c0 .227.184.412.411.412a.413.413 0 0 0 0-.824.412.412 0 0 0-.411.412zm2.14 21.655a1.73 1.73 0 0 1-1.729 1.73 1.732 1.732 0 0 1 0-3.462c.954 0 1.73.777 1.73 1.732zm-1.318 0a.413.413 0 0 0-.411-.412.413.413 0 0 0 0 .823.412.412 0 0 0 .411-.411zm-6.346-19.702a.687.687 0 0 1-.21-.475c0-.172.078-.344.197-.462a.69.69 0 0 1 .936-.013.715.715 0 0 1 .185.475c0 .17-.067.342-.185.462a.653.653 0 0 1-.923.013zm.923 17.77c.118.119.185.29.185.462a.657.657 0 0 1-.66.66.64.64 0 0 1-.461-.2.67.67 0 0 1-.198-.46c0-.172.08-.343.198-.462.25-.25.685-.25.936 0zm10.85-18.773a.64.64 0 0 1 .198.462.647.647 0 0 1-.198.474.66.66 0 0 1-.461.185.65.65 0 0 1-.66-.66c0-.171.067-.329.185-.461.263-.25.699-.25.936 0zm0 18.826a.667.667 0 0 1 .198.474.618.618 0 0 1-.198.462.67.67 0 0 1-.461.198.671.671 0 0 1-.462-.198.62.62 0 0 1-.198-.462.69.69 0 0 1 .185-.474c.263-.238.699-.238.936 0zm3.072-13.945a.598.598 0 0 1-.198-.462c0-.17.08-.343.198-.461.224-.238.686-.251.936 0 .119.132.185.29.185.461a.66.66 0 0 1-.185.462.667.667 0 0 1-.474.198.616.616 0 0 1-.462-.198zm.936 10.014a.71.71 0 0 1 .185.461.658.658 0 0 1-.185.462.669.669 0 0 1-.474.198.617.617 0 0 1-.462-.198.667.667 0 0 1-.198-.462c0-.171.08-.343.198-.461.224-.238.686-.252.936 0zm-18.827-10.845a.67.67 0 0 1 .014.937.649.649 0 0 1-.475.197.618.618 0 0 1-.461-.197.673.673 0 0 1-.198-.463.73.73 0 0 1 .198-.474c.25-.237.685-.237.922 0zm.014 10.74a.715.715 0 0 1 .184.474c0 .158-.066.33-.184.461a.666.666 0 0 1-.936.013.729.729 0 0 1-.198-.474c0-.186.08-.343.198-.475.237-.238.685-.238.936 0z"/></defs><use xlink:href="#ca" transform="translate(-599 -116)"/></symbol><symbol viewBox="0 0 24 22" id="login" xmlns="http://www.w3.org/2000/svg"><defs><path id="da" d="M1312.503 56.99h18.011c.83 0 1.501.656 1.501 1.466v19.067c0 .81-.672 1.466-1.5 1.466h-18.012c-.83 0-1.501-.656-1.501-1.466v-4.4h1.5v3.666c0 .405.337.734.751.734h16.51a.743.743 0 0 0 .751-.734v-17.6a.742.742 0 0 0-.75-.733h-16.511a.742.742 0 0 0-.75.734v3.667h-1.501v-4.401c0-.81.672-1.466 1.5-1.466zm-3.753 10.267h17.727l-4.754-4.645a.706.706 0 0 1 0-1.014.747.747 0 0 1 1.036 0l5.886 5.752a.706.706 0 0 1 .368.64.704.704 0 0 1-.368.638l-5.886 5.752a.747.747 0 0 1-1.036 0 .706.706 0 0 1 0-1.013l4.753-4.644h-17.726a.742.742 0 0 1-.75-.734c0-.404.336-.732.75-.732z"/></defs><g transform="translate(-1308 -57)"><use xlink:href="#da"/><use xlink:href="#da"/></g></symbol><symbol viewBox="0 0 24 21" id="user" xmlns="http://www.w3.org/2000/svg"><defs><path id="ea" d="M1402.008 56.997c4.301 0 5.257 2.802 5.257 6.26 0 2.218-.86 4.563-2.313 5.959 1.557.385 4.582 1.172 5.025 1.574.992.899 1.487 3.145.496 4.494 0 0-.293.265-4.03.388a3.92 3.92 0 0 0 0-1.444l2.287.006c1.177-.41.891-2.414 0-2.811-.636-.283-3.273-.983-4.834-1.387l-.206-.68v-.977c1.303-1.017 2.069-3.146 2.069-5.078 0-2.656-.625-4.81-3.75-4.81-.211 0-.41.01-.599.03-.649-.418-1.483-.683-2.55-.755.767-.49 1.79-.77 3.148-.77zm-6.004 1.498c4.301 0 5.257 2.959 5.257 6.608 0 2.372-.883 4.881-2.37 6.347 1.538.38 4.633 1.181 5.083 1.589.99.898 1.486 3.145.495 4.493 0 0-.495.449-8.425.449-7.93 0-8.5-.45-8.5-.45-.998-1.347-.495-3.594.504-4.492.463-.417 3.51-1.196 5.081-1.577-1.495-1.464-2.382-3.98-2.382-6.359 0-3.65.956-6.608 5.257-6.608zm-3.75 6.66c0 2.07.765 4.348 2.068 5.439v1.011l-.182.603c-1.328.385-3.961 1.161-4.64 1.463-.896.4-1.576 2.336-.235 2.81l6.648-.016 6.813.017c1.177-.41.891-2.413 0-2.811-.636-.283-3.273-.983-4.834-1.386l-.206-.68v-1.01c1.303-1.09 2.069-3.37 2.069-5.44 0-2.845-.625-5.152-3.75-5.152-3.126 0-3.751 2.307-3.751 5.153z"/></defs><g transform="translate(-1387 -57)"><use xlink:href="#ea"/><use xlink:href="#ea"/></g></symbol></svg>