<?xml version="1.0" encoding="utf-8"?><svg xmlns="http://www.w3.org/2000/svg" xmlns:xlink="http://www.w3.org/1999/xlink"><symbol viewBox="0 0 37 37" id="aside-2" xmlns="http://www.w3.org/2000/svg"><defs><path id="aa" d="M450.012 500.667c.088.498-.236.87-.45 1.115l-5.066 5.826c-.467.54-.703.719-1.357.865-2.345.528-2.806-1.256-3.07-2.51-.209-.984-.425-2.002-1.322-2.63-.618-.434-1.244-.653-1.862-.653-1.1 0-2.106.75-2.45 1.826-.359 1.126.094 2.231 1.243 3.03.583.406 1.164.678 1.674.917 1.045.492 2.126.999 2.107 2.386-.041 2.946-4.389 6.525-6.11 7.453-.278.15-.553.282-.878.282-.566 0-.9-.396-1.122-.659l-1.197-1.432c-1.213-1.46-3.241-3.9-3.672-4.197-.58-.323-2.17-.105-2.82 1.04-.318.558-.462 1.298-.6 2.015-.283 1.47-.636 3.297-2.782 3.604a5.753 5.753 0 0 1-.794.057c-2.779 0-4.469-2.106-4.698-4.187-.198-1.781.716-3.824 3.203-4.37.4-.087.78-.093 1.118-.098.29-.005.564-.009.757-.067.297-.09.854-.256.635-1.6-.452-2.793-3.443-5.07-6.333-7.271l-.48-.366c-.789-.604-.895-1.124-.405-1.984.964-1.683 6.308-6.694 7.88-7.169.246-.074.488-.11.716-.11 1.778 0 2.21 1.983 2.555 3.579.163.752.331 1.53.591 1.973.414.703 1.21 1.106 2.185 1.106.9 0 1.788-.365 2.319-.95.438-.486.62-1.087.54-1.786-.146-1.289-.83-2.779-1.99-3-.43-.085-.713-.023-.948.025-1.094.215-1.788-.266-2.517-1.22-.758-.99-.917-1.924-.475-2.775.074-.14.136-.26 6.147-6.218.21-.209.528-.523 1.01-.523.462 0 .78.293.99.488 2.537 2.327 6.662 6.067 7.52 6.727.772-.028 1.004-.516 1.175-2.418.025-.275.048-.532.08-.755.258-1.735 1.138-2.202 2.353-2.674 2.444-.94 4.85-.077 5.93 2.02.77 1.498.676 3.274-.243 4.525-1.156 1.576-2.827 1.58-4.048 1.584-1.156.004-1.616.051-1.867.55-1.045 2.06 3.369 6.234 6.025 7.728.285.16.717.404.803.901zm-1.833.311c-2.476-1.492-8.143-6.218-6.407-9.643.71-1.402 2.132-1.405 3.274-1.41 1.123-.003 2.09-.004 2.777-.94.572-.78.616-1.917.112-2.895-.242-.47-.971-1.565-2.519-1.565-.451 0-.932.098-1.429.29-.968.375-1.227.512-1.364 1.444a10.7 10.7 0 0 0-.071.668c-.128 1.41-.34 4.155-3.097 3.82-.32-.036-.549-.062-8.15-7.035-2.165 2.147-5.59 5.56-5.845 5.858-.025.079-.068.37.41.994.498.65.666.67.683.67.088 0 .176-.023.273-.04.382-.075.852-.16 1.55-.027 1.954.374 3.044 2.46 3.26 4.361.13 1.143-.193 2.18-.933 3-.832.922-2.138 1.472-3.495 1.472-1.53 0-2.857-.703-3.55-1.884-.386-.656-.581-1.558-.77-2.43-.214-.99-.508-2.344-1.011-2.344a.888.888 0 0 0-.258.044c-.964.291-6.046 4.861-6.957 6.43l.467.354c3.135 2.388 6.377 4.857 6.929 8.26.382 2.344-.925 3.103-1.738 3.345-.404.12-.803.127-1.188.133-.287.005-.558.009-.8.063-2.06.451-2.034 2.16-1.977 2.673.168 1.527 1.523 3.077 3.698 2.754.942-.134 1.149-.75 1.457-2.35.154-.801.329-1.709.774-2.49.675-1.184 2.083-1.982 3.503-1.982.553 0 1.07.125 1.492.363.495.278 1.502 1.435 4.093 4.55l1.189 1.425.014.015a.054.054 0 0 0 .018-.01c1.84-.99 5.26-4.175 5.288-6.102.005-.326-.176-.468-1.204-.95-.541-.254-1.213-.57-1.906-1.052-1.7-1.181-2.404-3.013-1.84-4.78.548-1.718 2.173-2.918 3.954-2.918.951 0 1.885.316 2.775.94 1.403.984 1.722 2.488 1.953 3.584.276 1.305.396 1.366.734 1.366.123 0 .273-.018.444-.056.244-.055.244-.055.507-.36z"/></defs><use xlink:href="#aa" transform="translate(-413 -482)"/></symbol><symbol viewBox="0 0 35 35" id="aside-3" xmlns="http://www.w3.org/2000/svg"><defs><path id="ba" d="M431.305 616.478c0 2.608-2.13 4.73-4.749 4.73-2.617 0-4.747-2.122-4.747-4.73 0-2.609 2.13-4.73 4.747-4.73 2.618 0 4.749 2.121 4.749 4.73zm-1.473 0c0-1.8-1.47-3.263-3.276-3.263a3.272 3.272 0 0 0-3.274 3.263 3.273 3.273 0 0 0 3.274 3.263 3.273 3.273 0 0 0 3.276-3.263zm8.179-1.591c.149 1.069.149 2.11 0 3.182a.735.735 0 0 1-.634.627l-2.447.32a8.62 8.62 0 0 1-.651 1.564l1.506 1.951a.73.73 0 0 1 .003.89 11.598 11.598 0 0 1-2.259 2.25.742.742 0 0 1-.893-.003l-1.957-1.499a8.725 8.725 0 0 1-1.572.65l-.32 2.44a.733.733 0 0 1-.629.63 11.496 11.496 0 0 1-3.193.003.734.734 0 0 1-.63-.632l-.32-2.438a8.666 8.666 0 0 1-1.575-.65l-1.96 1.5a.74.74 0 0 1-.892.004 11.798 11.798 0 0 1-2.258-2.25.732.732 0 0 1 .003-.89l1.505-1.95a8.715 8.715 0 0 1-.655-1.572l-2.447-.319a.734.734 0 0 1-.633-.626 11.55 11.55 0 0 1 0-3.181.734.734 0 0 1 .633-.627l2.447-.319a8.64 8.64 0 0 1 .655-1.572l-1.505-1.95a.732.732 0 0 1-.003-.89 11.805 11.805 0 0 1 2.258-2.25.74.74 0 0 1 .893.004l1.959 1.5a8.715 8.715 0 0 1 1.575-.65l.32-2.438a.734.734 0 0 1 .63-.631 11.295 11.295 0 0 1 3.193.001.733.733 0 0 1 .629.631l.32 2.44c.544.164 1.07.381 1.572.649l1.957-1.5a.738.738 0 0 1 .893-.002c.853.641 1.612 1.4 2.259 2.25.2.264.199.628-.003.89l-1.506 1.952c.268.5.485 1.022.65 1.564l2.448.32c.329.043.588.3.634.627zm-1.397.753l-2.362-.308a.735.735 0 0 1-.62-.556 7.173 7.173 0 0 0-.863-2.076.732.732 0 0 1 .044-.83l1.452-1.883c-.363-.428-.76-.824-1.19-1.186l-1.888 1.446a.737.737 0 0 1-.833.045 7.217 7.217 0 0 0-2.086-.863.736.736 0 0 1-.557-.618l-.31-2.354a9.866 9.866 0 0 0-1.68 0l-.31 2.352a.736.736 0 0 1-.557.618 7.229 7.229 0 0 0-2.09.862.735.735 0 0 1-.833-.044l-1.89-1.446c-.425.36-.826.76-1.187 1.183l1.45 1.881a.732.732 0 0 1 .045.83 7.175 7.175 0 0 0-.868 2.084.736.736 0 0 1-.62.556l-2.36.307a10.179 10.179 0 0 0 0 1.675l2.36.308c.302.04.549.26.62.556.177.734.47 1.435.868 2.083.16.26.141.59-.044.83l-1.451 1.882c.36.424.762.823 1.188 1.183l1.889-1.447a.74.74 0 0 1 .833-.043c.65.396 1.353.686 2.09.861a.735.735 0 0 1 .558.619l.308 2.353a9.968 9.968 0 0 0 1.682-.001l.309-2.354c.04-.3.26-.547.557-.618a7.278 7.278 0 0 0 2.086-.863.74.74 0 0 1 .833.044l1.889 1.446a10.07 10.07 0 0 0 1.19-1.185l-1.453-1.882a.732.732 0 0 1-.044-.83 7.167 7.167 0 0 0 .863-2.077.735.735 0 0 1 .62-.556l2.362-.308a9.597 9.597 0 0 0 0-1.676zm8.151-15.64a3.332 3.332 0 0 1-3.083 4.618c-.435 0-.86-.085-1.265-.25a3.33 3.33 0 0 1-1.827-4.343c.68-1.66 2.685-2.501 4.36-1.82a3.314 3.314 0 0 1 1.815 1.794zm-1.358.567a1.85 1.85 0 0 0-1.016-1.003 1.862 1.862 0 0 0-1.416 3.446c.939.382 2.057-.09 2.437-1.018.19-.46.187-.967-.005-1.425zm6.562 2.828a8.413 8.413 0 0 1-.895 2.178.743.743 0 0 1-.824.34l-1.596-.42a6.434 6.434 0 0 1-.707.71l.436 1.587a.734.734 0 0 1-.335.825 8.645 8.645 0 0 1-2.177.91.737.737 0 0 1-.826-.34l-.83-1.422a6.53 6.53 0 0 1-1.004.005l-.819 1.43a.738.738 0 0 1-.823.346 8.416 8.416 0 0 1-2.185-.89.733.733 0 0 1-.343-.824l.422-1.589a6.394 6.394 0 0 1-.714-.706l-1.593.435a.74.74 0 0 1-.828-.334 8.662 8.662 0 0 1-.913-2.17.733.733 0 0 1 .341-.822l1.427-.828a6.495 6.495 0 0 1-.004-1.004l-1.434-.816a.732.732 0 0 1-.348-.82 8.589 8.589 0 0 1 .894-2.175.732.732 0 0 1 .826-.341l1.595.42a6.45 6.45 0 0 1 .71-.712l-.435-1.588a.735.735 0 0 1 .335-.825 8.75 8.75 0 0 1 2.178-.908.737.737 0 0 1 .825.34l.83 1.422a6.443 6.443 0 0 1 1.007-.003l.818-1.428a.734.734 0 0 1 .823-.347c.775.199 1.49.49 2.184.891a.734.734 0 0 1 .342.823l-.422 1.591c.256.216.494.452.712.705l1.593-.434a.741.741 0 0 1 .828.334c.404.679.71 1.409.913 2.171a.733.733 0 0 1-.342.822l-1.428.828c.027.333.029.666.005.999l1.433.815c.288.163.43.499.348.819zm-1.584.168l-1.349-.768a.732.732 0 0 1-.362-.749c.08-.515.077-1.04-.007-1.558-.05-.3.093-.6.356-.752l1.342-.778a6.979 6.979 0 0 0-.328-.782l-1.497.408a.74.74 0 0 1-.788-.274 5.031 5.031 0 0 0-1.112-1.1.734.734 0 0 1-.28-.783l.397-1.495a6.724 6.724 0 0 0-.787-.322l-.77 1.343a.738.738 0 0 1-.751.361 5.015 5.015 0 0 0-1.567.007.737.737 0 0 1-.755-.356l-.78-1.337c-.268.094-.53.204-.785.328l.409 1.491a.733.733 0 0 1-.277.786c-.424.31-.796.683-1.104 1.109a.736.736 0 0 1-.786.28l-1.499-.394c-.123.254-.23.515-.322.783l1.347.766c.265.15.41.448.362.749a4.96 4.96 0 0 0 .008 1.564c.049.3-.093.6-.357.752l-1.34.777c.093.266.204.528.328.782l1.497-.408a.74.74 0 0 1 .788.273 5.01 5.01 0 0 0 1.113 1.1c.248.178.36.489.282.783l-.397 1.495c.258.124.517.23.788.32l.77-1.343a.74.74 0 0 1 .75-.36 5.013 5.013 0 0 0 1.568-.01c.297-.05.6.094.753.356l.78 1.337c.269-.094.53-.204.785-.329l-.409-1.491a.731.731 0 0 1 .275-.785 5.01 5.01 0 0 0 1.102-1.107.74.74 0 0 1 .785-.28l1.5.395a6.77 6.77 0 0 0 .324-.784z"/></defs><use xlink:href="#ba" transform="translate(-415 -593)"/></symbol><symbol viewBox="0 0 29 36" id="aside-4" xmlns="http://www.w3.org/2000/svg"><defs><path id="ca" d="M445.991 711.025c0 .016.01.03.01.046v23.715c0 .99-.82 1.796-1.83 1.796h-20.795c-1.006 0-1.824-.806-1.824-1.796V706.8c0-.994.818-1.803 1.824-1.803h16.468c.598 0 .912.3 1.141.52l4.468 4.276c.242.23.379.535.46.854a.726.726 0 0 1 .088.332c0 .016-.009.03-.01.045zm-5.384-3.778v2.983h3.116zm3.869 27.539v-23.057h-4.632a.756.756 0 0 1-.762-.749v-4.504l-15.706.02a.305.305 0 0 0-.3.305v27.985c0 .16.138.297.3.297h20.795a.305.305 0 0 0 .305-.297zm-3.828-5.062c0 .415-.34.75-.762.75h-12.202a.755.755 0 0 1-.762-.75c0-.414.34-.749.762-.749h12.202c.422 0 .762.335.762.75zm0-4.495c0 .414-.34.749-.762.749h-12.202a.755.755 0 0 1-.762-.75c0-.414.34-.749.762-.749h12.202c.422 0 .762.335.762.75zm0-4.496c0 .414-.34.75-.762.75h-12.202a.756.756 0 0 1-.762-.75c0-.414.34-.75.762-.75h12.202c.422 0 .762.336.762.75zm-13.726-4.496c0-.414.34-.749.762-.749h7.626c.422 0 .763.335.763.75a.755.755 0 0 1-.763.748h-7.626a.756.756 0 0 1-.762-.749zm16.075 22.927c0 1.013-.839 1.837-1.87 1.837h-22.26c-1.03 0-1.868-.824-1.868-1.837V711.3c0-1.012.838-1.836 1.869-1.836.421 0 .762.335.762.75 0 .414-.34.749-.762.749a.34.34 0 0 0-.344.337v27.864a.34.34 0 0 0 .344.338h22.26a.34.34 0 0 0 .343-.338c0-.414.342-.749.763-.749s.763.335.763.75z"/></defs><use xlink:href="#ca" transform="translate(-417 -705)"/></symbol><symbol viewBox="0 0 31 27" id="aside-5" xmlns="http://www.w3.org/2000/svg"><defs><path id="da" d="M419.92 834.86v-1.444c0-.432.27-.827.672-.984 2.743-1.054 3.472-1.56 3.663-1.737v-.138a4.341 4.341 0 0 1-.784-1.454 1.583 1.583 0 0 1-.462-.914 1.56 1.56 0 0 1 .2-1.006v-1.096c0-1.783 1.187-2.891 3.099-2.891 1.94 0 3.099 1.081 3.099 2.891v1.096c.178.304.247.654.198 1.01a1.59 1.59 0 0 1-.462.911 4.36 4.36 0 0 1-.783 1.452v.164c.138.114.817.618 3.661 1.712.403.155.675.55.675.984v1.444c0 .582-.473 1.055-1.053 1.055h-10.67c-.58 0-1.053-.473-1.053-1.054zm1.293-.232h10.19v-1.054c-3.698-1.434-4.156-2.019-4.306-2.495a.656.656 0 0 1-.03-.192v-.577a.64.64 0 0 1 .185-.45c.312-.318.555-.766.704-1.297a.641.641 0 0 1 .252-.354.292.292 0 0 0 .05-.424.641.641 0 0 1-.144-.405v-1.293c0-1.094-.574-1.604-1.806-1.604-1.2 0-1.807.54-1.807 1.604v1.294a.644.644 0 0 1-.145.406.29.29 0 0 0 .052.423c.121.085.21.21.25.353.149.53.392.978.705 1.297a.64.64 0 0 1 .185.45v.577c0 .065-.01.13-.03.19-.148.477-.606 1.062-4.305 2.497zm12.9-3.166c0-.356.29-.644.646-.644h7.707a.645.645 0 1 1 0 1.288h-7.707a.645.645 0 0 1-.646-.644zm0-3.862c0-.356.29-.644.646-.644h7.707a.644.644 0 1 1 0 1.287h-7.707a.645.645 0 0 1-.646-.643zm12.885-8.955v25.71a.644.644 0 0 1-.646.644h-6.46a.644.644 0 0 1-.647-.644v-1.848a1.3 1.3 0 0 0-1.298-1.301 1.3 1.3 0 0 0-1.297 1.3v1.849a.645.645 0 0 1-.646.644h-9.041a.645.645 0 0 1-.646-.644v-1.848a1.3 1.3 0 0 0-1.298-1.301 1.3 1.3 0 0 0-1.297 1.3v1.849a.645.645 0 0 1-.646.644h-6.43a.644.644 0 0 1-.646-.644v-25.71c0-.356.29-.643.647-.643h29.705c.357 0 .646.287.646.643zm-1.292.644h-28.413v24.422h5.137v-1.204a2.592 2.592 0 0 1 2.589-2.588 2.593 2.593 0 0 1 2.59 2.588v1.204h7.749v-1.204a2.592 2.592 0 0 1 2.589-2.588 2.593 2.593 0 0 1 2.59 2.588v1.204h5.169z"/></defs><use xlink:href="#da" transform="translate(-416 -818)"/></symbol><symbol viewBox="0 0 48 44" id="basket" xmlns="http://www.w3.org/2000/svg"><defs><path id="ea" d="M1319.261 120.854a1.002 1.002 0 0 1-.092-1.413l6.642-7.545a3.325 3.325 0 0 1-.377-1.514c0-1.865 1.528-3.382 3.406-3.382 1.878 0 3.407 1.517 3.407 3.382 0 .547-.144 1.056-.378 1.514l6.644 7.545a1 1 0 0 1-.755 1.661c-.278 0-.557-.115-.754-.34l-6.54-7.426a3.382 3.382 0 0 1-1.624.427c-.59 0-1.14-.163-1.624-.427l-6.537 7.426a1.005 1.005 0 0 1-1.417.092zm8.18-10.472c0 .762.627 1.38 1.4 1.38a1.39 1.39 0 0 0 1.399-1.38 1.39 1.39 0 0 0-1.4-1.38c-.772 0-1.4.618-1.4 1.38zm14.492 27.606a1 1 0 0 1-1.003 1h-23.23a1.001 1.001 0 1 1 0-2h23.23c.554 0 1.003.447 1.003 1zm1.449-5.97c0 .554-.45 1.002-1.004 1.002h-26.127a1.002 1.002 0 1 1 0-2.002h26.127c.555 0 1.004.448 1.004 1zm-2.897 11.939c0 .554-.45 1-1.004 1h-20.333a1.001 1.001 0 1 1 0-2h20.333c.555 0 1.004.447 1.004 1zm12.487-15.48v1.267a4.734 4.734 0 0 1-2.79 4.318c-.58 2.01-1.065 3.788-1.496 5.356-2.372 8.661-3.172 11.58-8.207 11.58h-23.003c-5.004 0-5.818-2.952-8.234-11.711-.424-1.534-.902-3.268-1.465-5.225a4.735 4.735 0 0 1-2.79-4.318v-1.267c0-2.64 2.163-4.788 4.825-4.788h38.336c2.66 0 4.824 2.149 4.824 4.788zm-2.007 0c0-1.537-1.264-2.787-2.817-2.787h-38.336c-1.554 0-2.819 1.25-2.819 2.787v1.267a2.74 2.74 0 0 0 1.92 2.612c.317.103.564.356.656.676.625 2.161 1.149 4.06 1.607 5.723 2.423 8.784 2.923 10.24 6.3 10.24h23.003c3.404 0 3.896-1.438 6.272-10.105.465-1.698.998-3.641 1.638-5.858.093-.32.34-.573.657-.676a2.741 2.741 0 0 0 1.919-2.612z"/></defs><use xlink:href="#ea" transform="translate(-1305 -107)"/></symbol><symbol viewBox="0 0 344.96 344.96" id="check" xmlns="http://www.w3.org/2000/svg"><g data-name="Слой 2"><path d="M321.85 86.24l-40-23.11-23.1-40H212.5L172.48 0l-40 23.11H86.24l-23.11 40-40 23.1v46.21L0 172.48l23.11 40v46.21l40 23.11 23.11 40h46.21l40 23.1 40-23.11h46.21l23.11-40 40-23.11V212.5l23.11-40-23.11-40V86.24zM156.91 243.07a16.79 16.79 0 0 1-23.34 0l-50.45-50.44a16.19 16.19 0 0 1 0-22.89l13.35-13.35a16.19 16.19 0 0 1 22.89 0l25.87 25.87 80.34-80.35a16.19 16.19 0 0 1 22.89 0l13.35 13.35a16.19 16.19 0 0 1 0 22.89z" data-name="Capa 1"/></g></symbol><symbol viewBox="0 0 31 31" id="clock" xmlns="http://www.w3.org/2000/svg"><defs><path id="ga" d="M629.998 131.5c0 8.55-6.951 15.505-15.495 15.505s-15.495-6.956-15.495-15.505c0-8.55 6.951-15.506 15.495-15.506s15.495 6.957 15.495 15.506zm-1.318 0c0-7.822-6.36-14.186-14.177-14.186-7.817 0-14.177 6.364-14.177 14.186s6.36 14.186 14.177 14.186c7.817 0 14.177-6.364 14.177-14.186zm-14.206.99l-7.55-7.505a.66.66 0 0 1 .93-.936l7.194 7.15 4.153-2.374a.66.66 0 0 1 .654 1.145l-4.59 2.624a.656.656 0 0 1-.791-.105zm12.589-1.193c0 .954-.776 1.73-1.73 1.73s-1.73-.776-1.73-1.73c0-.955.776-1.731 1.73-1.731s1.73.776 1.73 1.73zm-1.319 0a.412.412 0 1 0-.823 0 .412.412 0 0 0 .823 0zm-22.071 1.73c-.954 0-1.73-.776-1.73-1.73 0-.955.776-1.731 1.73-1.731a1.732 1.732 0 0 1 0 3.461zm.41-1.73a.412.412 0 1 0-.823 0 .412.412 0 0 0 .824 0zm8.68-10.788c0-.954.775-1.73 1.729-1.73.954 0 1.73.776 1.73 1.73 0 .955-.776 1.731-1.73 1.731s-1.73-.776-1.73-1.73zm1.318 0c0 .227.184.412.411.412a.413.413 0 0 0 0-.824.412.412 0 0 0-.411.412zm2.14 21.655a1.73 1.73 0 0 1-1.729 1.73 1.732 1.732 0 0 1 0-3.462c.954 0 1.73.777 1.73 1.732zm-1.318 0a.413.413 0 0 0-.411-.412.413.413 0 0 0 0 .823.412.412 0 0 0 .411-.411zm-6.346-19.702a.687.687 0 0 1-.21-.475c0-.172.078-.344.197-.462a.69.69 0 0 1 .936-.013.715.715 0 0 1 .185.475c0 .17-.067.342-.185.462a.653.653 0 0 1-.923.013zm.923 17.77c.118.119.185.29.185.462a.657.657 0 0 1-.66.66.64.64 0 0 1-.461-.2.67.67 0 0 1-.198-.46c0-.172.08-.343.198-.462.25-.25.685-.25.936 0zm10.85-18.773a.64.64 0 0 1 .198.462.647.647 0 0 1-.198.474.66.66 0 0 1-.461.185.65.65 0 0 1-.66-.66c0-.171.067-.329.185-.461.263-.25.699-.25.936 0zm0 18.826a.667.667 0 0 1 .198.474.618.618 0 0 1-.198.462.67.67 0 0 1-.461.198.671.671 0 0 1-.462-.198.62.62 0 0 1-.198-.462.69.69 0 0 1 .185-.474c.263-.238.699-.238.936 0zm3.072-13.945a.598.598 0 0 1-.198-.462c0-.17.08-.343.198-.461.224-.238.686-.251.936 0 .119.132.185.29.185.461a.66.66 0 0 1-.185.462.667.667 0 0 1-.474.198.616.616 0 0 1-.462-.198zm.936 10.014a.71.71 0 0 1 .185.461.658.658 0 0 1-.185.462.669.669 0 0 1-.474.198.617.617 0 0 1-.462-.198.667.667 0 0 1-.198-.462c0-.171.08-.343.198-.461.224-.238.686-.252.936 0zm-18.827-10.845a.67.67 0 0 1 .014.937.649.649 0 0 1-.475.197.618.618 0 0 1-.461-.197.673.673 0 0 1-.198-.463.73.73 0 0 1 .198-.474c.25-.237.685-.237.922 0zm.014 10.74a.715.715 0 0 1 .184.474c0 .158-.066.33-.184.461a.666.666 0 0 1-.936.013.729.729 0 0 1-.198-.474c0-.186.08-.343.198-.475.237-.238.685-.238.936 0z"/></defs><use xlink:href="#ga" transform="translate(-599 -116)"/></symbol><symbol viewBox="0 0 24 22" id="login" xmlns="http://www.w3.org/2000/svg"><defs><path id="ha" d="M1312.503 56.99h18.011c.83 0 1.501.656 1.501 1.466v19.067c0 .81-.672 1.466-1.5 1.466h-18.012c-.83 0-1.501-.656-1.501-1.466v-4.4h1.5v3.666c0 .405.337.734.751.734h16.51a.743.743 0 0 0 .751-.734v-17.6a.742.742 0 0 0-.75-.733h-16.511a.742.742 0 0 0-.75.734v3.667h-1.501v-4.401c0-.81.672-1.466 1.5-1.466zm-3.753 10.267h17.727l-4.754-4.645a.706.706 0 0 1 0-1.014.747.747 0 0 1 1.036 0l5.886 5.752a.706.706 0 0 1 .368.64.704.704 0 0 1-.368.638l-5.886 5.752a.747.747 0 0 1-1.036 0 .706.706 0 0 1 0-1.013l4.753-4.644h-17.726a.742.742 0 0 1-.75-.734c0-.404.336-.732.75-.732z"/></defs><g transform="translate(-1308 -57)"><use xlink:href="#ha"/><use xlink:href="#ha"/></g></symbol><symbol viewBox="0 0 24 21" id="user" xmlns="http://www.w3.org/2000/svg"><defs><path id="ia" d="M1402.008 56.997c4.301 0 5.257 2.802 5.257 6.26 0 2.218-.86 4.563-2.313 5.959 1.557.385 4.582 1.172 5.025 1.574.992.899 1.487 3.145.496 4.494 0 0-.293.265-4.03.388a3.92 3.92 0 0 0 0-1.444l2.287.006c1.177-.41.891-2.414 0-2.811-.636-.283-3.273-.983-4.834-1.387l-.206-.68v-.977c1.303-1.017 2.069-3.146 2.069-5.078 0-2.656-.625-4.81-3.75-4.81-.211 0-.41.01-.599.03-.649-.418-1.483-.683-2.55-.755.767-.49 1.79-.77 3.148-.77zm-6.004 1.498c4.301 0 5.257 2.959 5.257 6.608 0 2.372-.883 4.881-2.37 6.347 1.538.38 4.633 1.181 5.083 1.589.99.898 1.486 3.145.495 4.493 0 0-.495.449-8.425.449-7.93 0-8.5-.45-8.5-.45-.998-1.347-.495-3.594.504-4.492.463-.417 3.51-1.196 5.081-1.577-1.495-1.464-2.382-3.98-2.382-6.359 0-3.65.956-6.608 5.257-6.608zm-3.75 6.66c0 2.07.765 4.348 2.068 5.439v1.011l-.182.603c-1.328.385-3.961 1.161-4.64 1.463-.896.4-1.576 2.336-.235 2.81l6.648-.016 6.813.017c1.177-.41.891-2.413 0-2.811-.636-.283-3.273-.983-4.834-1.386l-.206-.68v-1.01c1.303-1.09 2.069-3.37 2.069-5.44 0-2.845-.625-5.152-3.75-5.152-3.126 0-3.751 2.307-3.751 5.153z"/></defs><g transform="translate(-1387 -57)"><use xlink:href="#ia"/><use xlink:href="#ia"/></g></symbol></svg>