<svg xmlns="http://www.w3.org/2000/svg" xmlns:xlink="http://www.w3.org/1999/xlink" width="37" height="37" viewBox="0 0 37 37"><defs><path id="unjma" d="M450.012 500.667c.088.498-.236.87-.45 1.115l-5.066 5.826c-.467.54-.703.719-1.357.865-2.345.528-2.806-1.256-3.07-2.51-.209-.984-.425-2.002-1.322-2.63-.618-.434-1.244-.653-1.862-.653-1.1 0-2.106.75-2.45 1.826-.359 1.126.094 2.231 1.243 3.03.583.406 1.164.678 1.674.917 1.045.492 2.126.999 2.107 2.386-.041 2.946-4.389 6.525-6.11 7.453-.278.15-.553.282-.878.282-.566 0-.9-.396-1.122-.659l-1.197-1.432c-1.213-1.46-3.241-3.9-3.672-4.197-.58-.323-2.17-.105-2.82 1.04-.318.558-.462 1.298-.6 2.015-.283 1.47-.636 3.297-2.782 3.604a5.753 5.753 0 0 1-.794.057c-2.779 0-4.469-2.106-4.698-4.187-.198-1.781.716-3.824 3.203-4.37.4-.087.78-.093 1.118-.098.29-.005.564-.009.757-.067.297-.09.854-.256.635-1.6-.452-2.793-3.443-5.07-6.333-7.271l-.48-.366c-.789-.604-.895-1.124-.405-1.984.964-1.683 6.308-6.694 7.88-7.169.246-.074.488-.11.716-.11 1.778 0 2.21 1.983 2.555 3.579.163.752.331 1.53.591 1.973.414.703 1.21 1.106 2.185 1.106.9 0 1.788-.365 2.319-.95.438-.486.62-1.087.54-1.786-.146-1.289-.83-2.779-1.99-3-.43-.085-.713-.023-.948.025-1.094.215-1.788-.266-2.517-1.22-.758-.99-.917-1.924-.475-2.775.074-.14.136-.26 6.147-6.218.21-.209.528-.523 1.01-.523.462 0 .78.293.99.488 2.537 2.327 6.662 6.067 7.52 6.727.772-.028 1.004-.516 1.175-2.418.025-.275.048-.532.08-.755.258-1.735 1.138-2.202 2.353-2.674 2.444-.94 4.85-.077 5.93 2.02.77 1.498.676 3.274-.243 4.525-1.156 1.576-2.827 1.58-4.048 1.584-1.156.004-1.616.051-1.867.55-1.045 2.06 3.369 6.234 6.025 7.728.285.16.717.404.803.901zm-1.833.311c-2.476-1.492-8.143-6.218-6.407-9.643.71-1.402 2.132-1.405 3.274-1.41 1.123-.003 2.09-.004 2.777-.94.572-.78.616-1.917.112-2.895-.242-.47-.971-1.565-2.519-1.565-.451 0-.932.098-1.429.29-.968.375-1.227.512-1.364 1.444-.03.196-.05.424-.071.668-.128 1.41-.34 4.155-3.097 3.82-.32-.036-.549-.062-8.15-7.035-2.165 2.147-5.59 5.56-5.845 5.858-.025.079-.068.37.41.994.498.65.666.67.683.67.088 0 .176-.023.273-.04.382-.075.852-.16 1.55-.027 1.954.374 3.044 2.46 3.26 4.361.13 1.143-.193 2.18-.933 3-.832.922-2.138 1.472-3.495 1.472-1.53 0-2.857-.703-3.55-1.884-.386-.656-.581-1.558-.77-2.43-.214-.99-.508-2.344-1.011-2.344a.888.888 0 0 0-.258.044c-.964.291-6.046 4.861-6.957 6.43l.467.354c3.135 2.388 6.377 4.857 6.929 8.26.382 2.344-.925 3.103-1.738 3.345-.404.12-.803.127-1.188.133-.287.005-.558.009-.8.063-2.06.451-2.034 2.16-1.977 2.673.168 1.527 1.523 3.077 3.698 2.754.942-.134 1.149-.75 1.457-2.35.154-.801.329-1.709.774-2.49.675-1.184 2.083-1.982 3.503-1.982.553 0 1.07.125 1.492.363.495.278 1.502 1.435 4.093 4.55l1.189 1.425.014.015c.006-.002.012-.005.018-.01 1.84-.99 5.26-4.175 5.288-6.102.005-.326-.176-.468-1.204-.95-.541-.254-1.213-.57-1.906-1.052-1.7-1.181-2.404-3.013-1.84-4.78.548-1.718 2.173-2.918 3.954-2.918.951 0 1.885.316 2.775.94 1.403.984 1.722 2.488 1.953 3.584.276 1.305.396 1.366.734 1.366.123 0 .273-.018.444-.056.244-.055.244-.055.507-.36z"/></defs><g><g transform="translate(-413 -482)"><use fill="#fff" xlink:href="#unjma"/></g></g></svg>