<svg xmlns="http://www.w3.org/2000/svg" xmlns:xlink="http://www.w3.org/1999/xlink" width="35" height="35" viewBox="0 0 35 35"><defs><path id="b865a" d="M431.305 616.478c0 2.608-2.13 4.73-4.749 4.73-2.617 0-4.747-2.122-4.747-4.73 0-2.609 2.13-4.73 4.747-4.73 2.618 0 4.749 2.121 4.749 4.73zm-1.473 0c0-1.8-1.47-3.263-3.276-3.263a3.272 3.272 0 0 0-3.274 3.263c0 1.799 1.469 3.263 3.274 3.263a3.273 3.273 0 0 0 3.276-3.263zm8.179-1.591c.149 1.069.149 2.11 0 3.182a.735.735 0 0 1-.634.627l-2.447.32a8.62 8.62 0 0 1-.651 1.564l1.506 1.951a.73.73 0 0 1 .003.89 11.598 11.598 0 0 1-2.259 2.25.742.742 0 0 1-.893-.003l-1.957-1.499a8.725 8.725 0 0 1-1.572.65l-.32 2.44a.733.733 0 0 1-.629.63 11.496 11.496 0 0 1-3.193.003.734.734 0 0 1-.63-.632l-.32-2.438a8.666 8.666 0 0 1-1.575-.65l-1.96 1.5a.74.74 0 0 1-.892.004 11.798 11.798 0 0 1-2.258-2.25.732.732 0 0 1 .003-.89l1.505-1.95a8.715 8.715 0 0 1-.655-1.572l-2.447-.319a.734.734 0 0 1-.633-.626 11.55 11.55 0 0 1 0-3.181.734.734 0 0 1 .633-.627l2.447-.319c.166-.544.385-1.07.655-1.572l-1.505-1.95a.732.732 0 0 1-.003-.89 11.805 11.805 0 0 1 2.258-2.25.74.74 0 0 1 .893.004l1.959 1.5a8.715 8.715 0 0 1 1.575-.65l.32-2.438a.734.734 0 0 1 .63-.631 11.295 11.295 0 0 1 3.193.001.733.733 0 0 1 .629.631l.32 2.44c.544.164 1.07.381 1.572.649l1.957-1.5a.738.738 0 0 1 .893-.002c.853.641 1.612 1.4 2.259 2.25.2.264.199.628-.003.89l-1.506 1.952c.268.5.485 1.022.65 1.564l2.448.32c.329.043.588.3.634.627zm-1.397.753l-2.362-.308a.735.735 0 0 1-.62-.556 7.173 7.173 0 0 0-.863-2.076.732.732 0 0 1 .044-.83l1.452-1.883c-.363-.428-.76-.824-1.19-1.186l-1.888 1.446a.737.737 0 0 1-.833.045 7.217 7.217 0 0 0-2.086-.863.736.736 0 0 1-.557-.618l-.31-2.354a9.866 9.866 0 0 0-1.68 0l-.31 2.352a.736.736 0 0 1-.557.618 7.229 7.229 0 0 0-2.09.862.735.735 0 0 1-.833-.044l-1.89-1.446c-.425.36-.826.76-1.187 1.183l1.45 1.881c.186.241.204.572.045.83a7.175 7.175 0 0 0-.868 2.084.736.736 0 0 1-.62.556l-2.36.307a10.179 10.179 0 0 0 0 1.675l2.36.308c.302.04.549.26.62.556.177.734.47 1.435.868 2.083.16.26.141.59-.044.83l-1.451 1.882c.36.424.762.823 1.188 1.183l1.889-1.447a.74.74 0 0 1 .833-.043c.65.396 1.353.686 2.09.861a.735.735 0 0 1 .558.619l.308 2.353a9.968 9.968 0 0 0 1.682-.001l.309-2.354c.04-.3.26-.547.557-.618a7.278 7.278 0 0 0 2.086-.863.74.74 0 0 1 .833.044l1.889 1.446a10.07 10.07 0 0 0 1.19-1.185l-1.453-1.882a.732.732 0 0 1-.044-.83 7.167 7.167 0 0 0 .863-2.077.735.735 0 0 1 .62-.556l2.362-.308a9.597 9.597 0 0 0 0-1.676zm8.151-15.64a3.332 3.332 0 0 1-3.083 4.618c-.435 0-.86-.085-1.265-.25a3.33 3.33 0 0 1-1.827-4.343c.68-1.66 2.685-2.501 4.36-1.82a3.314 3.314 0 0 1 1.815 1.794zm-1.358.567a1.85 1.85 0 0 0-1.016-1.003 1.862 1.862 0 0 0-1.416 3.446c.939.382 2.057-.09 2.437-1.018.19-.46.187-.967-.005-1.425zm6.562 2.828a8.413 8.413 0 0 1-.895 2.178.743.743 0 0 1-.824.34l-1.596-.42a6.434 6.434 0 0 1-.707.71l.436 1.587a.734.734 0 0 1-.335.825 8.645 8.645 0 0 1-2.177.91.737.737 0 0 1-.826-.34l-.83-1.422a6.53 6.53 0 0 1-1.004.005l-.819 1.43a.738.738 0 0 1-.823.346 8.416 8.416 0 0 1-2.185-.89.733.733 0 0 1-.343-.824l.422-1.589a6.394 6.394 0 0 1-.714-.706l-1.593.435a.74.74 0 0 1-.828-.334 8.662 8.662 0 0 1-.913-2.17.733.733 0 0 1 .341-.822l1.427-.828a6.495 6.495 0 0 1-.004-1.004l-1.434-.816a.732.732 0 0 1-.348-.82 8.589 8.589 0 0 1 .894-2.175.732.732 0 0 1 .826-.341l1.595.42c.218-.255.455-.494.71-.712l-.435-1.588a.735.735 0 0 1 .335-.825 8.75 8.75 0 0 1 2.178-.908.737.737 0 0 1 .825.34l.83 1.422a6.443 6.443 0 0 1 1.007-.003l.818-1.428a.734.734 0 0 1 .823-.347c.775.199 1.49.49 2.184.891a.734.734 0 0 1 .342.823l-.422 1.591c.256.216.494.452.712.705l1.593-.434a.741.741 0 0 1 .828.334c.404.679.71 1.409.913 2.171a.733.733 0 0 1-.342.822l-1.428.828c.027.333.029.666.005.999l1.433.815c.288.163.43.499.348.819zm-1.584.168l-1.349-.768a.732.732 0 0 1-.362-.749c.08-.515.077-1.04-.007-1.558-.05-.3.093-.6.356-.752l1.342-.778a6.979 6.979 0 0 0-.328-.782l-1.497.408a.74.74 0 0 1-.788-.274 5.031 5.031 0 0 0-1.112-1.1.734.734 0 0 1-.28-.783l.397-1.495a6.724 6.724 0 0 0-.787-.322l-.77 1.343a.738.738 0 0 1-.751.361 5.015 5.015 0 0 0-1.567.007.737.737 0 0 1-.755-.356l-.78-1.337c-.268.094-.53.204-.785.328l.409 1.491a.733.733 0 0 1-.277.786c-.424.31-.796.683-1.104 1.109a.736.736 0 0 1-.786.28l-1.499-.394c-.123.254-.23.515-.322.783l1.347.766c.265.15.41.448.362.749a4.96 4.96 0 0 0 .008 1.564c.049.3-.093.6-.357.752l-1.34.777c.093.266.204.528.328.782l1.497-.408a.74.74 0 0 1 .788.273 5.01 5.01 0 0 0 1.113 1.1c.248.178.36.489.282.783l-.397 1.495c.258.124.517.23.788.32l.77-1.343a.74.74 0 0 1 .75-.36 5.013 5.013 0 0 0 1.568-.01c.297-.05.6.094.753.356l.78 1.337c.269-.094.53-.204.785-.329l-.409-1.491a.731.731 0 0 1 .275-.785c.424-.31.795-.683 1.102-1.107a.74.74 0 0 1 .785-.28l1.5.395c.125-.256.232-.515.324-.784z"/></defs><g><g transform="translate(-415 -593)"><use fill="#fff" xlink:href="#b865a"/></g></g></svg>