<svg xmlns="http://www.w3.org/2000/svg" xmlns:xlink="http://www.w3.org/1999/xlink" width="29" height="36" viewBox="0 0 29 36"><defs><path id="rlaua" d="M445.991 711.025c0 .016.01.03.01.046v23.715c0 .99-.82 1.796-1.83 1.796h-20.795c-1.006 0-1.824-.806-1.824-1.796V706.8c0-.994.818-1.803 1.824-1.803h16.468c.598 0 .912.3 1.141.52l4.468 4.276c.242.23.379.535.46.854a.726.726 0 0 1 .088.332c0 .016-.009.03-.01.045zm-5.384-3.778v2.983h3.116zm3.869 27.539v-23.057h-4.632a.756.756 0 0 1-.762-.749v-4.504l-15.706.02a.305.305 0 0 0-.3.305v27.985c0 .16.138.297.3.297h20.795a.305.305 0 0 0 .305-.297zm-3.828-5.062c0 .415-.34.75-.762.75h-12.202a.755.755 0 0 1-.762-.75c0-.414.34-.749.762-.749h12.202c.422 0 .762.335.762.75zm0-4.495c0 .414-.34.749-.762.749h-12.202a.755.755 0 0 1-.762-.75c0-.414.34-.749.762-.749h12.202c.422 0 .762.335.762.75zm0-4.496c0 .414-.34.75-.762.75h-12.202a.756.756 0 0 1-.762-.75c0-.414.34-.75.762-.75h12.202c.422 0 .762.336.762.75zm-13.726-4.496c0-.414.34-.749.762-.749h7.626c.422 0 .763.335.763.75 0 .413-.341.748-.763.748h-7.626a.756.756 0 0 1-.762-.749zm16.075 22.927c0 1.013-.839 1.837-1.87 1.837h-22.26c-1.03 0-1.868-.824-1.868-1.837V711.3c0-1.012.838-1.836 1.869-1.836.421 0 .762.335.762.75 0 .414-.34.749-.762.749a.34.34 0 0 0-.344.337v27.864a.34.34 0 0 0 .344.338h22.26a.34.34 0 0 0 .343-.338c0-.414.342-.749.763-.749s.763.335.763.75z"/></defs><g><g transform="translate(-417 -705)"><use fill="#fff" xlink:href="#rlaua"/></g></g></svg>