<svg xmlns="http://www.w3.org/2000/svg" xmlns:xlink="http://www.w3.org/1999/xlink" width="31" height="27" viewBox="0 0 31 27"><defs><path id="48oea" d="M419.92 834.86v-1.444c0-.432.27-.827.672-.984 2.743-1.054 3.472-1.56 3.663-1.737v-.138a4.341 4.341 0 0 1-.784-1.454 1.583 1.583 0 0 1-.462-.914 1.56 1.56 0 0 1 .2-1.006v-1.096c0-1.783 1.187-2.891 3.099-2.891 1.94 0 3.099 1.081 3.099 2.891v1.096c.178.304.247.654.198 1.01-.05.349-.215.67-.462.911a4.36 4.36 0 0 1-.783 1.452v.164c.138.114.817.618 3.661 1.712.403.155.675.55.675.984v1.444c0 .582-.473 1.055-1.053 1.055h-10.67c-.58 0-1.053-.473-1.053-1.054zm1.293-.232h10.19v-1.054c-3.698-1.434-4.156-2.019-4.306-2.495a.656.656 0 0 1-.03-.192v-.577a.64.64 0 0 1 .185-.45c.312-.318.555-.766.704-1.297a.641.641 0 0 1 .252-.354.292.292 0 0 0 .05-.424.641.641 0 0 1-.144-.405v-1.293c0-1.094-.574-1.604-1.806-1.604-1.2 0-1.807.54-1.807 1.604v1.294a.644.644 0 0 1-.145.406.29.29 0 0 0 .052.423c.121.085.21.21.25.353.149.53.392.978.705 1.297a.64.64 0 0 1 .185.45v.577c0 .065-.01.13-.03.19-.148.477-.606 1.062-4.305 2.497zm12.9-3.166c0-.356.29-.644.646-.644h7.707a.645.645 0 1 1 0 1.288h-7.707a.645.645 0 0 1-.646-.644zm0-3.862c0-.356.29-.644.646-.644h7.707a.644.644 0 1 1 0 1.287h-7.707a.645.645 0 0 1-.646-.643zm12.885-8.955v25.71a.644.644 0 0 1-.646.644h-6.46a.644.644 0 0 1-.647-.644v-1.848a1.3 1.3 0 0 0-1.298-1.301 1.3 1.3 0 0 0-1.297 1.3v1.849c0 .356-.289.644-.646.644h-9.041a.645.645 0 0 1-.646-.644v-1.848a1.3 1.3 0 0 0-1.298-1.301 1.3 1.3 0 0 0-1.297 1.3v1.849c0 .356-.289.644-.646.644h-6.43a.644.644 0 0 1-.646-.644v-25.71c0-.356.29-.643.647-.643h29.705c.357 0 .646.287.646.643zm-1.292.644h-28.413v24.422h5.137v-1.204a2.592 2.592 0 0 1 2.589-2.588 2.593 2.593 0 0 1 2.59 2.588v1.204h7.749v-1.204a2.592 2.592 0 0 1 2.589-2.588 2.593 2.593 0 0 1 2.59 2.588v1.204h5.169z"/></defs><g><g transform="translate(-416 -818)"><use fill="#fff" xlink:href="#48oea"/></g></g></svg>