<svg xmlns="http://www.w3.org/2000/svg" xmlns:xlink="http://www.w3.org/1999/xlink" width="48" height="44" viewBox="0 0 48 44"><defs><path id="e3n7a" d="M1319.261 120.854a1.002 1.002 0 0 1-.092-1.413l6.642-7.545a3.325 3.325 0 0 1-.377-1.514c0-1.865 1.528-3.382 3.406-3.382 1.878 0 3.407 1.517 3.407 3.382 0 .547-.144 1.056-.378 1.514l6.644 7.545a1 1 0 0 1-.755 1.661c-.278 0-.557-.115-.754-.34l-6.54-7.426a3.382 3.382 0 0 1-1.624.427c-.59 0-1.14-.163-1.624-.427l-6.537 7.426a1.005 1.005 0 0 1-1.417.092zm8.18-10.472c0 .762.627 1.38 1.4 1.38.771 0 1.399-.618 1.399-1.38a1.39 1.39 0 0 0-1.4-1.38c-.772 0-1.4.618-1.4 1.38zm14.492 27.606a1 1 0 0 1-1.003 1h-23.23a1.001 1.001 0 1 1 0-2h23.23c.554 0 1.003.447 1.003 1zm1.449-5.97c0 .554-.45 1.002-1.004 1.002h-26.127a1.002 1.002 0 1 1 0-2.002h26.127c.555 0 1.004.448 1.004 1zm-2.897 11.939c0 .554-.45 1-1.004 1h-20.333a1.001 1.001 0 1 1 0-2h20.333c.555 0 1.004.447 1.004 1zm12.487-15.48v1.267a4.734 4.734 0 0 1-2.79 4.318c-.58 2.01-1.065 3.788-1.496 5.356-2.372 8.661-3.172 11.58-8.207 11.58h-23.003c-5.004 0-5.818-2.952-8.234-11.711-.424-1.534-.902-3.268-1.465-5.225a4.735 4.735 0 0 1-2.79-4.318v-1.267c0-2.64 2.163-4.788 4.825-4.788h38.336c2.66 0 4.824 2.149 4.824 4.788zm-2.007 0c0-1.537-1.264-2.787-2.817-2.787h-38.336c-1.554 0-2.819 1.25-2.819 2.787v1.267c0 1.194.77 2.244 1.92 2.612.317.103.564.356.656.676.625 2.161 1.149 4.06 1.607 5.723 2.423 8.784 2.923 10.24 6.3 10.24h23.003c3.404 0 3.896-1.438 6.272-10.105.465-1.698.998-3.641 1.638-5.858.093-.32.34-.573.657-.676a2.741 2.741 0 0 0 1.919-2.612z"/></defs><g><g transform="translate(-1305 -107)"><use fill="#ce0f17" xlink:href="#e3n7a"/></g></g></svg>