<svg xmlns="http://www.w3.org/2000/svg" xmlns:xlink="http://www.w3.org/1999/xlink" width="31" height="31" viewBox="0 0 31 31"><defs><path id="ieeda" d="M629.998 131.5c0 8.55-6.951 15.505-15.495 15.505s-15.495-6.956-15.495-15.505c0-8.55 6.951-15.506 15.495-15.506s15.495 6.957 15.495 15.506zm-1.318 0c0-7.822-6.36-14.186-14.177-14.186-7.817 0-14.177 6.364-14.177 14.186s6.36 14.186 14.177 14.186c7.817 0 14.177-6.364 14.177-14.186zm-14.206.99l-7.55-7.505a.66.66 0 0 1 .93-.936l7.194 7.15 4.153-2.374a.66.66 0 0 1 .654 1.145l-4.59 2.624a.656.656 0 0 1-.791-.105zm12.589-1.193c0 .954-.776 1.73-1.73 1.73s-1.73-.776-1.73-1.73c0-.955.776-1.731 1.73-1.731s1.73.776 1.73 1.73zm-1.319 0a.412.412 0 1 0-.823 0 .412.412 0 0 0 .823 0zm-22.071 1.73c-.954 0-1.73-.776-1.73-1.73 0-.955.776-1.731 1.73-1.731a1.732 1.732 0 0 1 0 3.461zm.41-1.73a.412.412 0 1 0-.823 0 .412.412 0 0 0 .824 0zm8.68-10.788c0-.954.775-1.73 1.729-1.73.954 0 1.73.776 1.73 1.73 0 .955-.776 1.731-1.73 1.731s-1.73-.776-1.73-1.73zm1.318 0c0 .227.184.412.411.412a.413.413 0 0 0 0-.824.412.412 0 0 0-.411.412zm2.14 21.655c0 .955-.775 1.73-1.729 1.73a1.732 1.732 0 0 1 0-3.462c.954 0 1.73.777 1.73 1.732zm-1.318 0a.413.413 0 0 0-.411-.412.413.413 0 0 0 0 .823.412.412 0 0 0 .411-.411zm-6.346-19.702a.687.687 0 0 1-.21-.475c0-.172.078-.344.197-.462a.69.69 0 0 1 .936-.013.715.715 0 0 1 .185.475c0 .17-.067.342-.185.462a.653.653 0 0 1-.923.013zm.923 17.77c.118.119.185.29.185.462a.657.657 0 0 1-.66.66.64.64 0 0 1-.461-.2.67.67 0 0 1-.198-.46c0-.172.08-.343.198-.462.25-.25.685-.25.936 0zm10.85-18.773c.132.132.198.29.198.462a.647.647 0 0 1-.198.474.66.66 0 0 1-.461.185.65.65 0 0 1-.66-.66c0-.171.067-.329.185-.461.263-.25.699-.25.936 0zm0 18.826a.667.667 0 0 1 .198.474.618.618 0 0 1-.198.462.67.67 0 0 1-.461.198.671.671 0 0 1-.462-.198.62.62 0 0 1-.198-.462.69.69 0 0 1 .185-.474c.263-.238.699-.238.936 0zm3.072-13.945a.598.598 0 0 1-.198-.462c0-.17.08-.343.198-.461.224-.238.686-.251.936 0 .119.132.185.29.185.461a.66.66 0 0 1-.185.462.667.667 0 0 1-.474.198.616.616 0 0 1-.462-.198zm.936 10.014a.71.71 0 0 1 .185.461.658.658 0 0 1-.185.462.669.669 0 0 1-.474.198.617.617 0 0 1-.462-.198.667.667 0 0 1-.198-.462c0-.171.08-.343.198-.461.224-.238.686-.252.936 0zm-18.827-10.845a.67.67 0 0 1 .014.937.649.649 0 0 1-.475.197.618.618 0 0 1-.461-.197.673.673 0 0 1-.198-.463.73.73 0 0 1 .198-.474c.25-.237.685-.237.922 0zm.014 10.74a.715.715 0 0 1 .184.474c0 .158-.066.33-.184.461a.666.666 0 0 1-.936.013.729.729 0 0 1-.198-.474c0-.186.08-.343.198-.475.237-.238.685-.238.936 0z"/></defs><g><g transform="translate(-599 -116)"><use fill="#d40e11" xlink:href="#ieeda"/></g></g></svg>