<svg xmlns="http://www.w3.org/2000/svg" xmlns:xlink="http://www.w3.org/1999/xlink" width="24" height="22" viewBox="0 0 24 22"><defs><path id="1f7ca" d="M1312.503 56.99h18.011c.83 0 1.501.656 1.501 1.466v19.067c0 .81-.672 1.466-1.5 1.466h-18.012c-.83 0-1.501-.656-1.501-1.466v-4.4h1.5v3.666c0 .405.337.734.751.734h16.51c.415 0 .751-.329.751-.734v-17.6a.742.742 0 0 0-.75-.733h-16.511a.742.742 0 0 0-.75.734v3.667h-1.501v-4.401c0-.81.672-1.466 1.5-1.466zm-3.753 10.267h17.727l-4.754-4.645a.706.706 0 0 1 0-1.014.747.747 0 0 1 1.036 0l5.886 5.752a.706.706 0 0 1 .368.64.704.704 0 0 1-.368.638l-5.886 5.752a.747.747 0 0 1-1.036 0 .706.706 0 0 1 0-1.013l4.753-4.644h-17.726a.742.742 0 0 1-.75-.734c0-.404.336-.732.75-.732z"/></defs><g><g transform="translate(-1308 -57)"><use fill="#fff" xlink:href="#1f7ca"/><use fill="#11151d" xlink:href="#1f7ca"/></g></g></svg>