<svg xmlns="http://www.w3.org/2000/svg" xmlns:xlink="http://www.w3.org/1999/xlink" width="24" height="21" viewBox="0 0 24 21"><defs><path id="ckxxa" d="M1402.008 56.997c4.301 0 5.257 2.802 5.257 6.26 0 2.218-.86 4.563-2.313 5.959 1.557.385 4.582 1.172 5.025 1.574.992.899 1.487 3.145.496 4.494 0 0-.293.265-4.03.388a3.92 3.92 0 0 0 0-1.444l2.287.006c1.177-.41.891-2.414 0-2.811-.636-.283-3.273-.983-4.834-1.387l-.206-.68v-.977c1.303-1.017 2.069-3.146 2.069-5.078 0-2.656-.625-4.81-3.75-4.81-.211 0-.41.01-.599.03-.649-.418-1.483-.683-2.55-.755.767-.49 1.79-.77 3.148-.77zm-6.004 1.498c4.301 0 5.257 2.959 5.257 6.608 0 2.372-.883 4.881-2.37 6.347 1.538.38 4.633 1.181 5.083 1.589.99.898 1.486 3.145.495 4.493 0 0-.495.449-8.425.449-7.93 0-8.5-.45-8.5-.45-.998-1.347-.495-3.594.504-4.492.463-.417 3.51-1.196 5.081-1.577-1.495-1.464-2.382-3.98-2.382-6.359 0-3.65.956-6.608 5.257-6.608zm-3.75 6.66c0 2.07.765 4.348 2.068 5.439v1.011l-.182.603c-1.328.385-3.961 1.161-4.64 1.463-.896.4-1.576 2.336-.235 2.81l6.648-.016 6.813.017c1.177-.41.891-2.413 0-2.811-.636-.283-3.273-.983-4.834-1.386l-.206-.68v-1.01c1.303-1.09 2.069-3.37 2.069-5.44 0-2.845-.625-5.152-3.75-5.152-3.126 0-3.751 2.307-3.751 5.153z"/></defs><g><g transform="translate(-1387 -57)"><use fill="#fff" xlink:href="#ckxxa"/><use fill="#11151d" xlink:href="#ckxxa"/></g></g></svg>